<svg width="165" height="47" viewBox="0 0 165 47" fill="none" xmlns="http://www.w3.org/2000/svg">
<g clip-path="url(#clip0_6_132)">
<path d="M47.3713 21.6654H55.4937C62.4489 21.6654 67.9914 27.2177 67.9914 34.0997C67.9914 40.9818 62.4489 46.4661 55.4937 46.4661H47.3713V21.6557V21.6654ZM55.4937 42.3796C59.9474 42.3796 63.6162 38.7784 63.6162 34.0997C63.6162 29.4211 59.9474 25.7519 55.4937 25.7519H51.717V42.3796H55.4937Z" fill="white"/>
<path d="M70.1495 36.8273C70.1495 31.1295 74.8092 26.6547 80.5282 26.6547C86.2473 26.6547 90.907 31.1295 90.907 36.8273C90.907 42.5252 86.2473 46.9903 80.5282 46.9903C74.8092 46.9903 70.1495 42.3796 70.1495 36.8273ZM86.5318 36.8273C86.5318 33.0902 83.8439 30.78 80.5282 30.78C77.2126 30.78 74.5934 33.0902 74.5934 36.8273C74.5934 40.5644 77.242 42.8746 80.5282 42.8746C83.8145 42.8746 86.5318 40.4285 86.5318 36.8273Z" fill="white"/>
<path d="M93.2417 36.7206C93.2417 31.0616 97.9013 26.48 103.66 26.48C106.622 26.48 109.349 27.7419 111.213 29.6929L108.349 32.5952C107.25 31.3722 105.631 30.6053 103.65 30.6053C100.334 30.6053 97.6855 33.265 97.6855 36.7206C97.6855 40.1762 100.334 42.8747 103.65 42.8747C105.524 42.8747 107.005 42.2146 108.103 41.1274L110.968 43.9909C109.094 45.874 106.514 47 103.66 47C97.9013 47 93.2417 42.4281 93.2417 36.7303V36.7206Z" fill="white"/>
<path d="M121.464 37.7397V21.7042H125.879V37.9824C125.879 40.9138 127.86 42.8746 131.107 42.8746C134.354 42.8746 136.336 40.9138 136.336 37.9824L136.297 21.7042H140.711V37.7397C140.711 43.0493 136.719 47 131.107 47C125.496 47 121.464 43.0493 121.464 37.7397Z" fill="white"/>
<path d="M151.825 33.8279L143.85 21.7042H149.079L154.199 30.0908L159.359 21.7042H164.588L156.603 33.8279L165.01 46.4758H159.781L154.199 37.565L148.618 46.4758H143.389L151.825 33.8279Z" fill="white"/>
<path d="M34.3341 8.30896V34.323H8.40694C3.76693 34.323 -1.52588e-05 30.5956 -1.52588e-05 26.0043V8.30896C-1.52588e-05 3.72739 3.76693 0 8.39713 0L25.9272 0C30.5672 0 34.3341 3.72739 34.3341 8.30896Z" fill="#346AAC"/>
<mask id="mask0_6_132" style="mask-type:luminance" maskUnits="userSpaceOnUse" x="15" y="6" width="9" height="8">
<path d="M23.1314 6.59088H15.6564V13.8806H23.1314V6.59088Z" fill="white"/>
</mask>
<g mask="url(#mask0_6_132)">
<path d="M15.6564 13.8806L21.6011 12.4732L23.1412 6.59088V13.8806H15.6564Z" fill="white"/>
</g>
<mask id="mask1_6_132" style="mask-type:luminance" maskUnits="userSpaceOnUse" x="23" y="6" width="8" height="8">
<path d="M30.6163 6.59088H23.1412V13.8806H30.6163V6.59088Z" fill="white"/>
</mask>
<g mask="url(#mask1_6_132)">
<path d="M30.6163 13.8806L24.6716 12.4732L23.1412 6.59088V13.8806H30.6163Z" fill="white"/>
</g>
<mask id="mask2_6_132" style="mask-type:luminance" maskUnits="userSpaceOnUse" x="23" y="13" width="8" height="9">
<path d="M30.6163 13.8806H23.1412V21.1704H30.6163V13.8806Z" fill="white"/>
</mask>
<g mask="url(#mask2_6_132)">
<path d="M30.6163 13.8806L24.6716 15.2881L23.1412 21.1704V13.8806H30.6163Z" fill="white"/>
</g>
<mask id="mask3_6_132" style="mask-type:luminance" maskUnits="userSpaceOnUse" x="15" y="13" width="9" height="9">
<path d="M23.1314 13.8806H15.6564V21.1704H23.1314V13.8806Z" fill="white"/>
</mask>
<g mask="url(#mask3_6_132)">
<path d="M15.6564 13.8806L21.6011 15.2881L23.1412 21.1704V13.8806H15.6564Z" fill="white"/>
</g>
</g>
<defs>
<clipPath id="clip0_6_132">
<rect width="165" height="47" fill="white"/>
</clipPath>
</defs>
</svg>
