<svg width="153" height="52" viewBox="0 0 153 52" fill="none" xmlns="http://www.w3.org/2000/svg">
<path d="M0 7C0 3.13401 3.13401 0 7 0H23C26.866 0 30 3.13401 30 7V31H7C3.13401 31 0 27.866 0 24V7Z" fill="url(#paint0_linear_53_332)"/>
<path d="M27.0548 11.8284C20 11.9693 20 17.3916 20 20L20 3C20 9.79509 24.2456 11.618 27.0548 11.8284C27.3567 11.8224 27.6716 11.826 28 11.84C27.7126 11.8557 27.3942 11.8538 27.0548 11.8284Z" fill="white"/>
    <path d="M12.7679 11.1424C20 10.8031 20 5.63003 20 3V20C20 13.0603 15.5718 11.2396 12.7679 11.1424C12.5205 11.154 12.2646 11.16 12 11.16C12.2368 11.1399 12.4946 11.133 12.7679 11.1424Z" fill="white"/>
    <path d="M39.736 43V17.8H47.8C50.368 17.8 52.636 18.34 54.604 19.42C56.596 20.5 58.144 21.988 59.248 23.884C60.376 25.756 60.94 27.928 60.94 30.4C60.94 32.848 60.376 35.02 59.248 36.916C58.144 38.812 56.596 40.3 54.604 41.38C52.636 42.46 50.368 43 47.8 43H39.736ZM44.668 38.392H47.8C48.952 38.392 50.02 38.188 51.004 37.78C51.988 37.372 52.84 36.808 53.56 36.088C54.304 35.368 54.88 34.528 55.288 33.568C55.696 32.584 55.9 31.528 55.9 30.4C55.9 29.272 55.696 28.228 55.288 27.268C54.88 26.284 54.304 25.432 53.56 24.712C52.84 23.992 51.988 23.428 51.004 23.02C50.02 22.612 48.952 22.408 47.8 22.408H44.668V38.392ZM72.719 43.432C70.895 43.432 69.263 43.036 67.823 42.244C66.407 41.428 65.291 40.312 64.475 38.896C63.683 37.48 63.287 35.848 63.287 34C63.287 32.152 63.683 30.52 64.475 29.104C65.267 27.688 66.371 26.584 67.787 25.792C69.203 24.976 70.823 24.568 72.647 24.568C74.495 24.568 76.127 24.976 77.543 25.792C78.959 26.584 80.063 27.688 80.855 29.104C81.647 30.52 82.043 32.152 82.043 34C82.043 35.848 81.647 37.48 80.855 38.896C80.063 40.312 78.959 41.428 77.543 42.244C76.151 43.036 74.543 43.432 72.719 43.432ZM72.719 39.04C73.607 39.04 74.387 38.824 75.059 38.392C75.731 37.96 76.247 37.372 76.607 36.628C76.991 35.86 77.183 34.984 77.183 34C77.183 33.016 76.991 32.152 76.607 31.408C76.223 30.64 75.683 30.04 74.987 29.608C74.315 29.176 73.535 28.96 72.647 28.96C71.783 28.96 71.003 29.176 70.307 29.608C69.635 30.04 69.107 30.64 68.723 31.408C68.339 32.152 68.147 33.016 68.147 34C68.147 34.984 68.339 35.86 68.723 36.628C69.107 37.372 69.647 37.96 70.343 38.392C71.039 38.824 71.831 39.04 72.719 39.04ZM93.853 43.432C91.981 43.432 90.313 43.036 88.849 42.244C87.385 41.428 86.245 40.312 85.429 38.896C84.613 37.456 84.205 35.824 84.205 34C84.205 32.152 84.613 30.52 85.429 29.104C86.245 27.688 87.373 26.584 88.813 25.792C90.253 24.976 91.909 24.568 93.781 24.568C95.581 24.568 97.225 25.012 98.713 25.9C100.201 26.788 101.281 28.072 101.953 29.752L97.489 31.336C97.153 30.64 96.625 30.088 95.905 29.68C95.209 29.248 94.429 29.032 93.565 29.032C92.677 29.032 91.897 29.248 91.225 29.68C90.553 30.088 90.025 30.664 89.641 31.408C89.257 32.152 89.065 33.016 89.065 34C89.065 34.984 89.257 35.848 89.641 36.592C90.025 37.312 90.565 37.888 91.261 38.32C91.957 38.752 92.749 38.968 93.637 38.968C94.501 38.968 95.281 38.74 95.977 38.284C96.697 37.828 97.225 37.228 97.561 36.484L102.061 38.068C101.365 39.772 100.273 41.092 98.785 42.028C97.321 42.964 95.677 43.432 93.853 43.432ZM115.377 43.504C113.289 43.504 111.477 43.096 109.941 42.28C108.405 41.464 107.217 40.324 106.377 38.86C105.561 37.372 105.153 35.62 105.153 33.604V17.8H110.085V33.604C110.085 34.684 110.301 35.632 110.733 36.448C111.189 37.24 111.813 37.852 112.605 38.284C113.421 38.716 114.369 38.932 115.449 38.932C116.529 38.932 117.465 38.716 118.257 38.284C119.073 37.852 119.697 37.24 120.129 36.448C120.585 35.632 120.813 34.684 120.813 33.604V17.8H125.745V33.604C125.745 35.62 125.313 37.372 124.449 38.86C123.609 40.324 122.409 41.464 120.849 42.28C119.313 43.096 117.489 43.504 115.377 43.504ZM128.485 43L138.241 29.212L146.161 17.8H152.029L142.489 30.904L134.425 43H128.485ZM146.269 43L138.205 30.904L128.665 17.8H134.533L142.453 29.176L152.209 43H146.269Z" fill="white"/>
    <defs>
        <linearGradient id="paint0_linear_53_332" x1="15" y1="-1.07433e-06" x2="89.5" y2="41.5" gradientUnits="userSpaceOnUse">
            <stop stop-color="#03C6CA"/>
            <stop offset="1" stop-color="white" stop-opacity="0"/>
        </linearGradient>
    </defs>
</svg>
